<svg id="bold" enable-background="new 0 0 24 24" height="512" viewBox="0 0 24 24" width="512" xmlns="http://www.w3.org/2000/svg"><path d="m4.293 18.293-1.782 1.782c-.164-.044-.333-.075-.511-.075-1.103 0-2 .897-2 2s.897 2 2 2 2-.897 2-2c0-.178-.031-.347-.075-.511l1.782-1.782c.391-.391.391-1.023 0-1.414s-1.023-.391-1.414 0z"/><path d="m12 0c-1.103 0-2 .897-2 2 0 .737.405 1.375 1 1.722v3.278c0 .552.448 1 1 1s1-.448 1-1v-3.278c.595-.347 1-.985 1-1.722 0-1.103-.897-2-2-2z"/><path d="m22 20c-.178 0-.347.031-.511.075l-1.782-1.782c-.391-.391-1.023-.391-1.414 0s-.391 1.023 0 1.414l1.782 1.782c-.044.164-.075.333-.075.511 0 1.103.897 2 2 2s2-.897 2-2-.897-2-2-2z"/><path d="m2 10.15v8.314l1.232-1.232c.975-.975 2.561-.975 3.535 0s.975 2.561 0 3.535l-.814.814 5.047 2.019v-9.85z"/><path d="m14.5 5v2c0 1.378-1.122 2.5-2.5 2.5s-2.5-1.122-2.5-2.5v-2l-7.5 3 10 4 10-4z"/><path d="m17.232 20.768c-.975-.975-.975-2.561 0-3.535s2.561-.975 3.535 0l1.233 1.231v-8.314l-9 3.6v9.85l5.046-2.018z"/></svg>